<mxfile host="app.diagrams.net" agent="Mozilla/5.0 (Macintosh; Intel Mac OS X 10_15_7) AppleWebKit/537.36 (KHTML, like Gecko) Chrome/133.0.0.0 Safari/537.36" version="26.1.0">
  <diagram name="Page-1" id="OR4pIfMHLGbx1k_4LPah">
    <mxGraphModel dx="2923" dy="1782" grid="0" gridSize="10" guides="1" tooltips="1" connect="1" arrows="1" fold="1" page="0" pageScale="1" pageWidth="850" pageHeight="1100" math="0" shadow="0">
      <root>
        <mxCell id="0" />
        <mxCell id="1" parent="0" />
        <mxCell id="ZF2cLj5758UCWpF66wUY-11" value="" style="rounded=0;whiteSpace=wrap;html=1;" vertex="1" parent="1">
          <mxGeometry x="-1001" y="-376" width="120" height="60" as="geometry" />
        </mxCell>
        <mxCell id="ZF2cLj5758UCWpF66wUY-12" value="" style="ellipse;whiteSpace=wrap;html=1;" vertex="1" parent="1">
          <mxGeometry x="-1146" y="-583" width="120" height="80" as="geometry" />
        </mxCell>
        <mxCell id="ZF2cLj5758UCWpF66wUY-13" value="" style="ellipse;whiteSpace=wrap;html=1;" vertex="1" parent="1">
          <mxGeometry x="-850" y="-583" width="120" height="80" as="geometry" />
        </mxCell>
        <mxCell id="ZF2cLj5758UCWpF66wUY-14" value="" style="ellipse;whiteSpace=wrap;html=1;" vertex="1" parent="1">
          <mxGeometry x="-1146" y="-241" width="120" height="80" as="geometry" />
        </mxCell>
        <mxCell id="ZF2cLj5758UCWpF66wUY-15" value="" style="ellipse;whiteSpace=wrap;html=1;" vertex="1" parent="1">
          <mxGeometry x="-850" y="-241" width="120" height="80" as="geometry" />
        </mxCell>
        <mxCell id="ZF2cLj5758UCWpF66wUY-16" value="customer" style="text;html=1;align=center;verticalAlign=middle;whiteSpace=wrap;rounded=0;" vertex="1" parent="1">
          <mxGeometry x="-971" y="-361" width="60" height="30" as="geometry" />
        </mxCell>
        <mxCell id="ZF2cLj5758UCWpF66wUY-17" value="name" style="text;html=1;align=center;verticalAlign=middle;whiteSpace=wrap;rounded=0;" vertex="1" parent="1">
          <mxGeometry x="-1116" y="-558" width="60" height="30" as="geometry" />
        </mxCell>
        <mxCell id="ZF2cLj5758UCWpF66wUY-18" value="phone" style="text;html=1;align=center;verticalAlign=middle;whiteSpace=wrap;rounded=0;" vertex="1" parent="1">
          <mxGeometry x="-820" y="-558" width="60" height="30" as="geometry" />
        </mxCell>
        <mxCell id="ZF2cLj5758UCWpF66wUY-19" value="" style="rounded=0;whiteSpace=wrap;html=1;" vertex="1" parent="1">
          <mxGeometry x="-473" y="-378" width="120" height="60" as="geometry" />
        </mxCell>
        <mxCell id="ZF2cLj5758UCWpF66wUY-20" value="orders" style="text;html=1;align=center;verticalAlign=middle;whiteSpace=wrap;rounded=0;" vertex="1" parent="1">
          <mxGeometry x="-443" y="-363" width="60" height="30" as="geometry" />
        </mxCell>
        <mxCell id="ZF2cLj5758UCWpF66wUY-21" value="" style="rhombus;whiteSpace=wrap;html=1;" vertex="1" parent="1">
          <mxGeometry x="-692" y="-386" width="80" height="80" as="geometry" />
        </mxCell>
        <mxCell id="ZF2cLj5758UCWpF66wUY-22" value="" style="endArrow=none;html=1;rounded=0;fontSize=12;startSize=8;endSize=8;curved=1;exitX=0;exitY=0.5;exitDx=0;exitDy=0;entryX=1;entryY=0.5;entryDx=0;entryDy=0;" edge="1" parent="1" source="ZF2cLj5758UCWpF66wUY-21" target="ZF2cLj5758UCWpF66wUY-11">
          <mxGeometry width="50" height="50" relative="1" as="geometry">
            <mxPoint x="-615" y="-359" as="sourcePoint" />
            <mxPoint x="-565" y="-409" as="targetPoint" />
          </mxGeometry>
        </mxCell>
        <mxCell id="ZF2cLj5758UCWpF66wUY-23" value="" style="endArrow=none;html=1;rounded=0;fontSize=12;startSize=8;endSize=8;curved=1;exitX=1;exitY=0.5;exitDx=0;exitDy=0;entryX=0;entryY=0.5;entryDx=0;entryDy=0;" edge="1" parent="1" source="ZF2cLj5758UCWpF66wUY-21" target="ZF2cLj5758UCWpF66wUY-19">
          <mxGeometry width="50" height="50" relative="1" as="geometry">
            <mxPoint x="-572" y="-344" as="sourcePoint" />
            <mxPoint x="-497" y="-354" as="targetPoint" />
          </mxGeometry>
        </mxCell>
        <mxCell id="ZF2cLj5758UCWpF66wUY-24" value="places" style="text;html=1;align=center;verticalAlign=middle;whiteSpace=wrap;rounded=0;" vertex="1" parent="1">
          <mxGeometry x="-677" y="-361" width="60" height="30" as="geometry" />
        </mxCell>
        <mxCell id="ZF2cLj5758UCWpF66wUY-25" value="" style="endArrow=none;html=1;rounded=0;fontSize=12;startSize=8;endSize=8;curved=1;exitX=0.25;exitY=0;exitDx=0;exitDy=0;entryX=0.5;entryY=1;entryDx=0;entryDy=0;" edge="1" parent="1" source="ZF2cLj5758UCWpF66wUY-11" target="ZF2cLj5758UCWpF66wUY-12">
          <mxGeometry width="50" height="50" relative="1" as="geometry">
            <mxPoint x="-615" y="-359" as="sourcePoint" />
            <mxPoint x="-565" y="-409" as="targetPoint" />
          </mxGeometry>
        </mxCell>
        <mxCell id="ZF2cLj5758UCWpF66wUY-26" value="" style="endArrow=none;html=1;rounded=0;fontSize=12;startSize=8;endSize=8;curved=1;exitX=0.75;exitY=0;exitDx=0;exitDy=0;entryX=0.5;entryY=1;entryDx=0;entryDy=0;" edge="1" parent="1" source="ZF2cLj5758UCWpF66wUY-11" target="ZF2cLj5758UCWpF66wUY-13">
          <mxGeometry width="50" height="50" relative="1" as="geometry">
            <mxPoint x="-615" y="-359" as="sourcePoint" />
            <mxPoint x="-565" y="-409" as="targetPoint" />
          </mxGeometry>
        </mxCell>
        <mxCell id="ZF2cLj5758UCWpF66wUY-27" value="" style="endArrow=none;html=1;rounded=0;fontSize=12;startSize=8;endSize=8;curved=1;exitX=0.25;exitY=1;exitDx=0;exitDy=0;entryX=0.5;entryY=0;entryDx=0;entryDy=0;" edge="1" parent="1" source="ZF2cLj5758UCWpF66wUY-11" target="ZF2cLj5758UCWpF66wUY-14">
          <mxGeometry width="50" height="50" relative="1" as="geometry">
            <mxPoint x="-615" y="-359" as="sourcePoint" />
            <mxPoint x="-565" y="-409" as="targetPoint" />
          </mxGeometry>
        </mxCell>
        <mxCell id="ZF2cLj5758UCWpF66wUY-28" value="" style="endArrow=none;html=1;rounded=0;fontSize=12;startSize=8;endSize=8;curved=1;exitX=0.75;exitY=1;exitDx=0;exitDy=0;entryX=0;entryY=0;entryDx=0;entryDy=0;" edge="1" parent="1" source="ZF2cLj5758UCWpF66wUY-11" target="ZF2cLj5758UCWpF66wUY-15">
          <mxGeometry width="50" height="50" relative="1" as="geometry">
            <mxPoint x="-615" y="-359" as="sourcePoint" />
            <mxPoint x="-565" y="-409" as="targetPoint" />
          </mxGeometry>
        </mxCell>
        <mxCell id="ZF2cLj5758UCWpF66wUY-29" value="address" style="text;html=1;align=center;verticalAlign=middle;whiteSpace=wrap;rounded=0;" vertex="1" parent="1">
          <mxGeometry x="-1116" y="-216" width="60" height="30" as="geometry" />
        </mxCell>
        <mxCell id="ZF2cLj5758UCWpF66wUY-30" value="order-id" style="text;html=1;align=center;verticalAlign=middle;whiteSpace=wrap;rounded=0;" vertex="1" parent="1">
          <mxGeometry x="-820" y="-216" width="60" height="30" as="geometry" />
        </mxCell>
        <mxCell id="ZF2cLj5758UCWpF66wUY-31" value="1" style="text;html=1;align=center;verticalAlign=middle;whiteSpace=wrap;rounded=0;" vertex="1" parent="1">
          <mxGeometry x="-813" y="-378" width="60" height="30" as="geometry" />
        </mxCell>
        <mxCell id="ZF2cLj5758UCWpF66wUY-32" value="M" style="text;html=1;align=center;verticalAlign=middle;whiteSpace=wrap;rounded=0;" vertex="1" parent="1">
          <mxGeometry x="-583" y="-376" width="60" height="30" as="geometry" />
        </mxCell>
        <mxCell id="ZF2cLj5758UCWpF66wUY-33" value="" style="ellipse;whiteSpace=wrap;html=1;" vertex="1" parent="1">
          <mxGeometry x="-593" y="-583" width="120" height="80" as="geometry" />
        </mxCell>
        <mxCell id="ZF2cLj5758UCWpF66wUY-34" value="" style="ellipse;whiteSpace=wrap;html=1;" vertex="1" parent="1">
          <mxGeometry x="-346" y="-583" width="120" height="80" as="geometry" />
        </mxCell>
        <mxCell id="ZF2cLj5758UCWpF66wUY-35" value="" style="ellipse;whiteSpace=wrap;html=1;" vertex="1" parent="1">
          <mxGeometry x="-583" y="-241" width="120" height="80" as="geometry" />
        </mxCell>
        <mxCell id="ZF2cLj5758UCWpF66wUY-36" value="" style="ellipse;whiteSpace=wrap;html=1;" vertex="1" parent="1">
          <mxGeometry x="-315" y="-241" width="120" height="80" as="geometry" />
        </mxCell>
        <mxCell id="ZF2cLj5758UCWpF66wUY-37" value="" style="endArrow=none;html=1;rounded=0;fontSize=12;startSize=8;endSize=8;curved=1;exitX=0.25;exitY=0;exitDx=0;exitDy=0;entryX=0.5;entryY=1;entryDx=0;entryDy=0;" edge="1" parent="1" source="ZF2cLj5758UCWpF66wUY-19" target="ZF2cLj5758UCWpF66wUY-33">
          <mxGeometry width="50" height="50" relative="1" as="geometry">
            <mxPoint x="-327" y="-359" as="sourcePoint" />
            <mxPoint x="-277" y="-409" as="targetPoint" />
          </mxGeometry>
        </mxCell>
        <mxCell id="ZF2cLj5758UCWpF66wUY-38" value="" style="endArrow=none;html=1;rounded=0;fontSize=12;startSize=8;endSize=8;curved=1;exitX=0.25;exitY=1;exitDx=0;exitDy=0;entryX=0.431;entryY=0.056;entryDx=0;entryDy=0;entryPerimeter=0;" edge="1" parent="1" source="ZF2cLj5758UCWpF66wUY-19" target="ZF2cLj5758UCWpF66wUY-35">
          <mxGeometry width="50" height="50" relative="1" as="geometry">
            <mxPoint x="-327" y="-359" as="sourcePoint" />
            <mxPoint x="-277" y="-409" as="targetPoint" />
          </mxGeometry>
        </mxCell>
        <mxCell id="ZF2cLj5758UCWpF66wUY-39" value="" style="endArrow=none;html=1;rounded=0;fontSize=12;startSize=8;endSize=8;curved=1;exitX=0.691;exitY=0.044;exitDx=0;exitDy=0;exitPerimeter=0;entryX=0.5;entryY=1;entryDx=0;entryDy=0;" edge="1" parent="1" source="ZF2cLj5758UCWpF66wUY-19" target="ZF2cLj5758UCWpF66wUY-34">
          <mxGeometry width="50" height="50" relative="1" as="geometry">
            <mxPoint x="-327" y="-359" as="sourcePoint" />
            <mxPoint x="-277" y="-409" as="targetPoint" />
          </mxGeometry>
        </mxCell>
        <mxCell id="ZF2cLj5758UCWpF66wUY-40" value="" style="endArrow=none;html=1;rounded=0;fontSize=12;startSize=8;endSize=8;curved=1;exitX=0.75;exitY=1;exitDx=0;exitDy=0;entryX=0;entryY=0;entryDx=0;entryDy=0;" edge="1" parent="1" source="ZF2cLj5758UCWpF66wUY-19" target="ZF2cLj5758UCWpF66wUY-36">
          <mxGeometry width="50" height="50" relative="1" as="geometry">
            <mxPoint x="-327" y="-359" as="sourcePoint" />
            <mxPoint x="-277" y="-409" as="targetPoint" />
          </mxGeometry>
        </mxCell>
        <mxCell id="ZF2cLj5758UCWpF66wUY-41" value="total-amount" style="text;html=1;align=center;verticalAlign=middle;whiteSpace=wrap;rounded=0;" vertex="1" parent="1">
          <mxGeometry x="-558" y="-558" width="60" height="30" as="geometry" />
        </mxCell>
        <mxCell id="ZF2cLj5758UCWpF66wUY-42" value="order-date" style="text;html=1;align=center;verticalAlign=middle;whiteSpace=wrap;rounded=0;" vertex="1" parent="1">
          <mxGeometry x="-316" y="-558" width="60" height="30" as="geometry" />
        </mxCell>
        <mxCell id="ZF2cLj5758UCWpF66wUY-44" value="customer-id" style="text;html=1;align=center;verticalAlign=middle;whiteSpace=wrap;rounded=0;" vertex="1" parent="1">
          <mxGeometry x="-553" y="-216" width="60" height="30" as="geometry" />
        </mxCell>
        <mxCell id="ZF2cLj5758UCWpF66wUY-45" value="payment-methos" style="text;html=1;align=center;verticalAlign=middle;whiteSpace=wrap;rounded=0;" vertex="1" parent="1">
          <mxGeometry x="-285" y="-216" width="60" height="30" as="geometry" />
        </mxCell>
        <mxCell id="ZF2cLj5758UCWpF66wUY-46" value="" style="ellipse;whiteSpace=wrap;html=1;" vertex="1" parent="1">
          <mxGeometry x="-1003" y="-151" width="120" height="80" as="geometry" />
        </mxCell>
        <mxCell id="ZF2cLj5758UCWpF66wUY-47" value="" style="endArrow=none;html=1;rounded=0;fontSize=12;startSize=8;endSize=8;curved=1;exitX=0.5;exitY=1;exitDx=0;exitDy=0;entryX=0.5;entryY=0;entryDx=0;entryDy=0;" edge="1" parent="1" source="ZF2cLj5758UCWpF66wUY-11" target="ZF2cLj5758UCWpF66wUY-46">
          <mxGeometry width="50" height="50" relative="1" as="geometry">
            <mxPoint x="-511" y="-305" as="sourcePoint" />
            <mxPoint x="-461" y="-355" as="targetPoint" />
          </mxGeometry>
        </mxCell>
        <mxCell id="ZF2cLj5758UCWpF66wUY-48" value="address" style="text;html=1;align=center;verticalAlign=middle;whiteSpace=wrap;rounded=0;" vertex="1" parent="1">
          <mxGeometry x="-971" y="-126" width="60" height="30" as="geometry" />
        </mxCell>
        <mxCell id="ZF2cLj5758UCWpF66wUY-49" value="" style="rhombus;whiteSpace=wrap;html=1;" vertex="1" parent="1">
          <mxGeometry x="-155" y="-388" width="80" height="80" as="geometry" />
        </mxCell>
        <mxCell id="ZF2cLj5758UCWpF66wUY-50" value="" style="rounded=0;whiteSpace=wrap;html=1;" vertex="1" parent="1">
          <mxGeometry x="207" y="-378" width="120" height="60" as="geometry" />
        </mxCell>
        <mxCell id="ZF2cLj5758UCWpF66wUY-51" value="" style="endArrow=none;html=1;rounded=0;fontSize=12;startSize=8;endSize=8;curved=1;exitX=1;exitY=0.5;exitDx=0;exitDy=0;entryX=0;entryY=0.5;entryDx=0;entryDy=0;" edge="1" parent="1" source="ZF2cLj5758UCWpF66wUY-19" target="ZF2cLj5758UCWpF66wUY-49">
          <mxGeometry width="50" height="50" relative="1" as="geometry">
            <mxPoint x="269" y="-305" as="sourcePoint" />
            <mxPoint x="319" y="-355" as="targetPoint" />
          </mxGeometry>
        </mxCell>
        <mxCell id="ZF2cLj5758UCWpF66wUY-52" value="" style="endArrow=none;html=1;rounded=0;fontSize=12;startSize=8;endSize=8;curved=1;exitX=1;exitY=0.5;exitDx=0;exitDy=0;entryX=0;entryY=0.5;entryDx=0;entryDy=0;" edge="1" parent="1" source="ZF2cLj5758UCWpF66wUY-49" target="ZF2cLj5758UCWpF66wUY-50">
          <mxGeometry width="50" height="50" relative="1" as="geometry">
            <mxPoint x="269" y="-305" as="sourcePoint" />
            <mxPoint x="204" y="-348" as="targetPoint" />
          </mxGeometry>
        </mxCell>
        <mxCell id="ZF2cLj5758UCWpF66wUY-53" value="contains" style="text;html=1;align=center;verticalAlign=middle;whiteSpace=wrap;rounded=0;" vertex="1" parent="1">
          <mxGeometry x="-145" y="-363" width="60" height="30" as="geometry" />
        </mxCell>
        <mxCell id="ZF2cLj5758UCWpF66wUY-54" value="category" style="text;html=1;align=center;verticalAlign=middle;whiteSpace=wrap;rounded=0;" vertex="1" parent="1">
          <mxGeometry x="237" y="-363" width="60" height="30" as="geometry" />
        </mxCell>
        <mxCell id="ZF2cLj5758UCWpF66wUY-55" value="M" style="text;html=1;align=center;verticalAlign=middle;whiteSpace=wrap;rounded=0;" vertex="1" parent="1">
          <mxGeometry x="-265" y="-381" width="60" height="30" as="geometry" />
        </mxCell>
        <mxCell id="ZF2cLj5758UCWpF66wUY-57" value="" style="ellipse;whiteSpace=wrap;html=1;" vertex="1" parent="1">
          <mxGeometry x="34" y="-583" width="120" height="80" as="geometry" />
        </mxCell>
        <mxCell id="ZF2cLj5758UCWpF66wUY-58" value="" style="ellipse;whiteSpace=wrap;html=1;" vertex="1" parent="1">
          <mxGeometry x="382" y="-583" width="120" height="80" as="geometry" />
        </mxCell>
        <mxCell id="ZF2cLj5758UCWpF66wUY-59" value="" style="endArrow=none;html=1;rounded=0;fontSize=12;startSize=8;endSize=8;curved=1;entryX=0.25;entryY=0;entryDx=0;entryDy=0;exitX=0.5;exitY=1;exitDx=0;exitDy=0;" edge="1" parent="1" source="ZF2cLj5758UCWpF66wUY-57" target="ZF2cLj5758UCWpF66wUY-50">
          <mxGeometry width="50" height="50" relative="1" as="geometry">
            <mxPoint x="233" y="-257" as="sourcePoint" />
            <mxPoint x="283" y="-307" as="targetPoint" />
          </mxGeometry>
        </mxCell>
        <mxCell id="ZF2cLj5758UCWpF66wUY-60" value="" style="endArrow=none;html=1;rounded=0;fontSize=12;startSize=8;endSize=8;curved=1;entryX=0.75;entryY=0;entryDx=0;entryDy=0;exitX=0.5;exitY=1;exitDx=0;exitDy=0;" edge="1" parent="1" source="ZF2cLj5758UCWpF66wUY-58" target="ZF2cLj5758UCWpF66wUY-50">
          <mxGeometry width="50" height="50" relative="1" as="geometry">
            <mxPoint x="233" y="-257" as="sourcePoint" />
            <mxPoint x="283" y="-307" as="targetPoint" />
          </mxGeometry>
        </mxCell>
        <mxCell id="ZF2cLj5758UCWpF66wUY-61" value="" style="rhombus;whiteSpace=wrap;html=1;" vertex="1" parent="1">
          <mxGeometry x="218" y="-203" width="80" height="80" as="geometry" />
        </mxCell>
        <mxCell id="ZF2cLj5758UCWpF66wUY-62" value="has" style="text;html=1;align=center;verticalAlign=middle;whiteSpace=wrap;rounded=0;" vertex="1" parent="1">
          <mxGeometry x="228" y="-178" width="60" height="30" as="geometry" />
        </mxCell>
        <mxCell id="ZF2cLj5758UCWpF66wUY-63" value="" style="endArrow=none;html=1;rounded=0;fontSize=12;startSize=8;endSize=8;curved=1;entryX=0.433;entryY=0.972;entryDx=0;entryDy=0;entryPerimeter=0;exitX=0.5;exitY=0;exitDx=0;exitDy=0;" edge="1" parent="1" source="ZF2cLj5758UCWpF66wUY-61" target="ZF2cLj5758UCWpF66wUY-50">
          <mxGeometry width="50" height="50" relative="1" as="geometry">
            <mxPoint x="247" y="-201" as="sourcePoint" />
            <mxPoint x="283" y="-188" as="targetPoint" />
          </mxGeometry>
        </mxCell>
        <mxCell id="ZF2cLj5758UCWpF66wUY-64" value="" style="rounded=0;whiteSpace=wrap;html=1;" vertex="1" parent="1">
          <mxGeometry x="198" y="-41" width="120" height="60" as="geometry" />
        </mxCell>
        <mxCell id="ZF2cLj5758UCWpF66wUY-65" value="" style="endArrow=none;html=1;rounded=0;fontSize=12;startSize=8;endSize=8;curved=1;exitX=0.5;exitY=0;exitDx=0;exitDy=0;entryX=0.5;entryY=1;entryDx=0;entryDy=0;" edge="1" parent="1" source="ZF2cLj5758UCWpF66wUY-64" target="ZF2cLj5758UCWpF66wUY-61">
          <mxGeometry width="50" height="50" relative="1" as="geometry">
            <mxPoint x="233" y="-138" as="sourcePoint" />
            <mxPoint x="283" y="-188" as="targetPoint" />
          </mxGeometry>
        </mxCell>
        <mxCell id="ZF2cLj5758UCWpF66wUY-67" value="plants" style="text;html=1;align=center;verticalAlign=middle;whiteSpace=wrap;rounded=0;" vertex="1" parent="1">
          <mxGeometry x="228" y="-21" width="60" height="30" as="geometry" />
        </mxCell>
        <mxCell id="ZF2cLj5758UCWpF66wUY-68" value="category-name" style="text;html=1;align=center;verticalAlign=middle;whiteSpace=wrap;rounded=0;" vertex="1" parent="1">
          <mxGeometry x="64" y="-558" width="60" height="30" as="geometry" />
        </mxCell>
        <mxCell id="ZF2cLj5758UCWpF66wUY-69" value="descriptions" style="text;html=1;align=center;verticalAlign=middle;whiteSpace=wrap;rounded=0;" vertex="1" parent="1">
          <mxGeometry x="412" y="-558" width="60" height="30" as="geometry" />
        </mxCell>
        <mxCell id="ZF2cLj5758UCWpF66wUY-70" value="M" style="text;html=1;align=center;verticalAlign=middle;whiteSpace=wrap;rounded=0;" vertex="1" parent="1">
          <mxGeometry x="43" y="-381" width="60" height="30" as="geometry" />
        </mxCell>
        <mxCell id="ZF2cLj5758UCWpF66wUY-71" value="" style="ellipse;whiteSpace=wrap;html=1;" vertex="1" parent="1">
          <mxGeometry x="-101" y="-64" width="120" height="80" as="geometry" />
        </mxCell>
        <mxCell id="ZF2cLj5758UCWpF66wUY-72" value="" style="ellipse;whiteSpace=wrap;html=1;" vertex="1" parent="1">
          <mxGeometry x="589" y="-29" width="120" height="80" as="geometry" />
        </mxCell>
        <mxCell id="ZF2cLj5758UCWpF66wUY-73" value="" style="ellipse;whiteSpace=wrap;html=1;" vertex="1" parent="1">
          <mxGeometry x="-101" y="112" width="120" height="80" as="geometry" />
        </mxCell>
        <mxCell id="ZF2cLj5758UCWpF66wUY-74" value="" style="endArrow=none;html=1;rounded=0;fontSize=12;startSize=8;endSize=8;curved=1;exitX=1;exitY=0.5;exitDx=0;exitDy=0;entryX=0;entryY=0.5;entryDx=0;entryDy=0;" edge="1" parent="1" source="ZF2cLj5758UCWpF66wUY-71" target="ZF2cLj5758UCWpF66wUY-64">
          <mxGeometry width="50" height="50" relative="1" as="geometry">
            <mxPoint x="157" y="-23" as="sourcePoint" />
            <mxPoint x="207" y="-73" as="targetPoint" />
          </mxGeometry>
        </mxCell>
        <mxCell id="ZF2cLj5758UCWpF66wUY-75" value="" style="endArrow=none;html=1;rounded=0;fontSize=12;startSize=8;endSize=8;curved=1;entryX=0;entryY=0.5;entryDx=0;entryDy=0;exitX=1;exitY=0.5;exitDx=0;exitDy=0;" edge="1" parent="1" source="ZF2cLj5758UCWpF66wUY-64" target="ZF2cLj5758UCWpF66wUY-72">
          <mxGeometry width="50" height="50" relative="1" as="geometry">
            <mxPoint x="157" y="-23" as="sourcePoint" />
            <mxPoint x="207" y="-73" as="targetPoint" />
          </mxGeometry>
        </mxCell>
        <mxCell id="ZF2cLj5758UCWpF66wUY-76" value="" style="endArrow=none;html=1;rounded=0;fontSize=12;startSize=8;endSize=8;curved=1;exitX=1;exitY=0.5;exitDx=0;exitDy=0;entryX=0;entryY=0.75;entryDx=0;entryDy=0;" edge="1" parent="1" source="ZF2cLj5758UCWpF66wUY-73" target="ZF2cLj5758UCWpF66wUY-64">
          <mxGeometry width="50" height="50" relative="1" as="geometry">
            <mxPoint x="157" y="-23" as="sourcePoint" />
            <mxPoint x="207" y="-73" as="targetPoint" />
          </mxGeometry>
        </mxCell>
        <mxCell id="ZF2cLj5758UCWpF66wUY-77" value="plants-name" style="text;html=1;align=center;verticalAlign=middle;whiteSpace=wrap;rounded=0;" vertex="1" parent="1">
          <mxGeometry x="-71" y="-41" width="60" height="30" as="geometry" />
        </mxCell>
        <mxCell id="ZF2cLj5758UCWpF66wUY-78" value="price" style="text;html=1;align=center;verticalAlign=middle;whiteSpace=wrap;rounded=0;" vertex="1" parent="1">
          <mxGeometry x="-71" y="137" width="60" height="30" as="geometry" />
        </mxCell>
        <mxCell id="ZF2cLj5758UCWpF66wUY-79" value="stock" style="text;html=1;align=center;verticalAlign=middle;whiteSpace=wrap;rounded=0;" vertex="1" parent="1">
          <mxGeometry x="619" y="-7" width="60" height="30" as="geometry" />
        </mxCell>
        <mxCell id="ZF2cLj5758UCWpF66wUY-80" value="" style="ellipse;whiteSpace=wrap;html=1;" vertex="1" parent="1">
          <mxGeometry x="589" y="146" width="120" height="80" as="geometry" />
        </mxCell>
        <mxCell id="ZF2cLj5758UCWpF66wUY-81" value="" style="endArrow=none;html=1;rounded=0;fontSize=12;startSize=8;endSize=8;curved=1;exitX=1;exitY=0.75;exitDx=0;exitDy=0;entryX=0;entryY=0.5;entryDx=0;entryDy=0;" edge="1" parent="1" source="ZF2cLj5758UCWpF66wUY-64" target="ZF2cLj5758UCWpF66wUY-80">
          <mxGeometry width="50" height="50" relative="1" as="geometry">
            <mxPoint x="383" y="10" as="sourcePoint" />
            <mxPoint x="433" y="-40" as="targetPoint" />
          </mxGeometry>
        </mxCell>
        <mxCell id="ZF2cLj5758UCWpF66wUY-83" value="1" style="text;html=1;align=center;verticalAlign=middle;whiteSpace=wrap;rounded=0;" vertex="1" parent="1">
          <mxGeometry x="258" y="-274" width="60" height="30" as="geometry" />
        </mxCell>
        <mxCell id="ZF2cLj5758UCWpF66wUY-84" value="M" style="text;html=1;align=center;verticalAlign=middle;whiteSpace=wrap;rounded=0;" vertex="1" parent="1">
          <mxGeometry x="261" y="-105" width="60" height="30" as="geometry" />
        </mxCell>
        <mxCell id="ZF2cLj5758UCWpF66wUY-85" value="" style="ellipse;whiteSpace=wrap;html=1;" vertex="1" parent="1">
          <mxGeometry x="607" y="-428" width="120" height="80" as="geometry" />
        </mxCell>
        <mxCell id="ZF2cLj5758UCWpF66wUY-86" value="category-id" style="text;html=1;align=center;verticalAlign=middle;whiteSpace=wrap;rounded=0;" vertex="1" parent="1">
          <mxGeometry x="637" y="-388" width="60" height="30" as="geometry" />
        </mxCell>
        <mxCell id="ZF2cLj5758UCWpF66wUY-87" value="" style="endArrow=none;html=1;rounded=0;fontSize=12;startSize=8;endSize=8;curved=1;entryX=1;entryY=0.5;entryDx=0;entryDy=0;exitX=0;exitY=0.5;exitDx=0;exitDy=0;" edge="1" parent="1" source="ZF2cLj5758UCWpF66wUY-85" target="ZF2cLj5758UCWpF66wUY-50">
          <mxGeometry width="50" height="50" relative="1" as="geometry">
            <mxPoint x="-50" y="-154" as="sourcePoint" />
            <mxPoint y="-204" as="targetPoint" />
          </mxGeometry>
        </mxCell>
        <mxCell id="ZF2cLj5758UCWpF66wUY-88" value="plants-id" style="text;html=1;align=center;verticalAlign=middle;whiteSpace=wrap;rounded=0;" vertex="1" parent="1">
          <mxGeometry x="619" y="171" width="60" height="30" as="geometry" />
        </mxCell>
      </root>
    </mxGraphModel>
  </diagram>
</mxfile>
